<?xml version="1.0" standalone="no"?>
<!DOCTYPE svg PUBLIC "-//W3C//DTD SVG 20010904//EN"
 "http://www.w3.org/TR/2001/REC-SVG-20010904/DTD/svg10.dtd">
<svg version="1.0" xmlns="http://www.w3.org/2000/svg"
 width="16.000000pt" height="16.000000pt" viewBox="0 0 16.000000 16.000000"
 preserveAspectRatio="xMidYMid meet">
<metadata>
Created by potrace 1.11, written by Peter Selinger 2001-2013
</metadata>
<g transform="translate(0.000000,16.000000) scale(0.011111,-0.011111)"
fill="#000000" stroke="none">
<path d="M305 1253 c-50 -42 -111 -94 -137 -117 l-48 -41 39 -45 38 -44 119
99 c175 146 161 131 137 157 -11 13 -28 33 -39 45 l-19 21 -90 -75z"/>
<path d="M1007 1285 c-20 -24 -37 -46 -37 -48 0 -2 61 -55 136 -117 l136 -113
27 29 c57 63 60 55 -36 135 -49 40 -111 92 -139 116 l-50 42 -37 -44z"/>
<path d="M630 1194 c-110 -22 -205 -71 -285 -149 -75 -73 -117 -145 -146 -250
-78 -284 98 -581 391 -659 85 -23 228 -14 314 18 231 88 373 310 353 551 -19
218 -162 396 -377 470 -45 16 -204 28 -250 19z m224 -138 c271 -92 371 -421
197 -651 -76 -100 -184 -156 -313 -161 -198 -8 -366 113 -422 304 -19 65 -15
190 8 252 81 217 312 329 530 256z"/>
<path d="M662 778 l3 -182 139 -83 c76 -46 139 -83 140 -81 2 2 13 18 26 37
14 21 19 35 12 40 -5 3 -60 35 -121 71 l-111 65 0 157 0 158 -45 0 -45 0 2
-182z"/>
</g>
</svg>
